<svg xmlns="http://www.w3.org/2000/svg" viewBox="0 0 48 48"><g color="#000"><path d="M615.13-568.84a2.695 2.695 0 0 0-2.68 2.68v3.468c0 1.18.609 2.28 1.608 2.907l1.209.757a3.181 3.181 0 0 0 3.375 0l1.209-.757a3.435 3.435 0 0 0 1.607-2.907v-3.468a2.695 2.695 0 0 0-2.68-2.68zm0 2h3.648c.387 0 .68.293.68.68v3.468c0 .494-.252.949-.67 1.211l-1.209.76a1 1 0 0 0-.002 0c-.383.24-.862.24-1.246 0l-1.21-.76a1.426 1.426 0 0 1-.67-1.21v-3.47c0-.386.292-.679.679-.679zm1.82 12.94c-.586 0-1.173.161-1.688.484l-1.208.758a3.435 3.435 0 0 0-1.608 2.906v3.47a2.695 2.695 0 0 0 2.68 2.679h3.648a2.695 2.695 0 0 0 2.68-2.68v-3.469c0-1.179-.609-2.28-1.607-2.906l-1.21-.758a3.174 3.174 0 0 0-1.687-.484zm-.623 2.178c.383-.24.863-.24 1.246 0a1 1 0 0 0 .002 0l1.209.76c.418.262.67.717.67 1.21v3.47c0 .386-.293.679-.68.679h-3.648a.665.665 0 0 1-.68-.68v-3.469c0-.493.252-.948.67-1.21zm7.093-8.998c-1.18 0-2.28.609-2.906 1.607l-.758 1.21a3.181 3.181 0 0 0 0 3.374l.758 1.21a3.435 3.435 0 0 0 2.906 1.607h3.469a2.695 2.695 0 0 0 2.68-2.68v-3.648a2.695 2.695 0 0 0-2.68-2.68zm0 2h3.469c.387 0 .68.293.68.68v3.648c0 .387-.293.68-.68.68h-3.469c-.494 0-.949-.252-1.21-.67l-.76-1.21a1 1 0 0 0 0-.001 1.166 1.166 0 0 1 0-1.246l.76-1.211c.261-.418.716-.67 1.21-.67zm-12.94-2a1 1 0 0 0-1 1 1 1 0 0 0 1 1c.493 0 .949.252 1.21.67l.76 1.21c.241.384.241.864 0 1.247l-.76 1.21c-.261.419-.716.67-1.21.67h-3.469a.665.665 0 0 1-.68-.679v-3.648a1 1 0 0 0-1-1 1 1 0 0 0-1 1v3.648a2.695 2.695 0 0 0 2.68 2.68h3.469c1.18 0 2.28-.609 2.906-1.608l.758-1.209a3.181 3.181 0 0 0 0-3.375l-.758-1.209a3.435 3.435 0 0 0-2.906-1.607zm23.71-1.71a1 1 0 0 0-1 1 1 1 0 0 0 1 1 1 1 0 0 0 1-1 1 1 0 0 0-1-1z" style="-inkscape-stroke:none" transform="translate(-592.95 580.22)"/><path d="M616.95-575.22c-10.482 0-19 8.518-19 19s8.518 19 19 19 19-8.518 19-19a1 1 0 0 0-1-1 1 1 0 0 0-1 1c0 9.4-7.6 17-17 17s-17-7.6-17-17 7.6-17 17-17c6.354 0 11.881 3.478 14.801 8.63a1 1 0 0 0 1.363.378 1 1 0 0 0 .377-1.364c-3.264-5.76-9.456-9.644-16.54-9.644z" style="-inkscape-stroke:none" transform="translate(-592.95 580.22)"/></g></svg>